<svg xmlns="http://www.w3.org/2000/svg" viewBox="0 0 400 300" width="406" height="306" class="illustration styles_illustrationTablet__1DWOa"><g id="_365_cto_outline" data-name="#365_cto_outline"><polygon points="117.2 185.51 107.06 195.65 97.96 182.93 104.48 176.41 117.2 185.51" fill="#f56132"></polygon><path d="M107.06,196.65H107a1,1,0,0,1-.73-.41l-9.11-12.72a1,1,0,0,1,.11-1.29l6.53-6.52a1,1,0,0,1,1.28-.11l12.72,9.11a1,1,0,0,1,.42.73,1.05,1.05,0,0,1-.29.79l-10.14,10.13A1,1,0,0,1,107.06,196.65ZM99.26,183l7.93,11.07,8.47-8.47-11.07-7.93Z" fill="#093f68"></path><polygon points="117.2 185.51 107.06 195.65 113.55 195.91 117.47 191.99 117.2 185.51" fill="#f56132"></polygon><path d="M113.54,196.91h0l-6.48-.26a1,1,0,0,1-.89-.64,1,1,0,0,1,.23-1.07l10.13-10.14a1,1,0,0,1,1.07-.22,1,1,0,0,1,.64.89l.26,6.48a1,1,0,0,1-.29.75l-3.92,3.92A1,1,0,0,1,113.54,196.91Zm-4.16-2.17,3.77.16,3.3-3.3-.16-3.77Z" fill="#093f68"></path><polygon points="129.32 203.5 125.01 207.82 113.55 195.91 117.42 192.04 129.32 203.5" fill="#f56132"></polygon><path d="M125,208.82h0a1.05,1.05,0,0,1-.71-.31l-11.46-11.9a1,1,0,0,1,0-1.4l3.87-3.88a1,1,0,0,1,1.4,0L130,202.79a1,1,0,0,1,.31.71,1,1,0,0,1-.29.71l-4.31,4.31A1,1,0,0,1,125,208.82ZM115,195.93,125,206.39l2.87-2.87-10.46-10.08Z" fill="#093f68"></path><rect x="128.19" y="201.69" width="11.81" height="21.87" rx="3.05" transform="translate(-111.08 157.1) rotate(-45)" fill="#f56132"></rect><path d="M137.66,224.27a4,4,0,0,1-2.87-1.18l-11.15-11.15a4,4,0,0,1,0-5.73l4-4a4.06,4.06,0,0,1,5.73,0l11.15,11.15a4.06,4.06,0,0,1,0,5.73h0l-4,4A4,4,0,0,1,137.66,224.27ZM130.54,203a2.09,2.09,0,0,0-1.45.59l-4,4a2.09,2.09,0,0,0-.6,1.45,2.05,2.05,0,0,0,.6,1.45l11.16,11.16a2,2,0,0,0,2.89,0l4-4a2.05,2.05,0,0,0,0-2.9L132,203.58A2.07,2.07,0,0,0,130.54,203Zm13.31,15.35h0Z" fill="#093f68"></path><line x1="128.02" y1="203.24" x2="143.49" y2="218.71" fill="#f56132"></line><path d="M143.49,219.71a1,1,0,0,1-.71-.29L127.31,204a1,1,0,0,1,0-1.41,1,1,0,0,1,1.42,0L144.19,218a1,1,0,0,1-.7,1.71Z" fill="#093f68"></path><line x1="125.04" y1="206.22" x2="140.51" y2="221.69" fill="#f56132"></line><path d="M140.51,222.69a1,1,0,0,1-.71-.3l-15.46-15.46a1,1,0,0,1,0-1.42,1,1,0,0,1,1.41,0L141.22,221a1,1,0,0,1-.71,1.71Z" fill="#093f68"></path><path d="M148,195.22A12.62,12.62,0,0,0,150.48,181l-6.63,6.64-5.36-.47L137.21,181l6.42-6.42a12.6,12.6,0,0,0-17,14.16L104.74,211a7,7,0,0,0,10,10l21.92-22.25A12.6,12.6,0,0,0,148,195.22Zm-39.71,22.21a3.1,3.1,0,1,1,4.39,0A3.11,3.11,0,0,1,108.24,217.43Z" fill="#ffbc0e"></path><path d="M109.72,224a8,8,0,0,1-5.68-2.35,8,8,0,0,1,0-11.37l21.55-21.88A13.62,13.62,0,0,1,144,173.63a1,1,0,0,1,.62.73,1,1,0,0,1-.28.91l-6,6,1,4.92,4.15.36,6.3-6.3a1,1,0,0,1,.89-.28,1,1,0,0,1,.73.56,13.68,13.68,0,0,1-2.73,15.36h0a13.61,13.61,0,0,1-11.7,3.82l-21.55,21.88A8,8,0,0,1,109.72,224Zm29.33-49.29a11.6,11.6,0,0,0-11.4,13.83,1,1,0,0,1-.27.89l-21.92,22.26a6,6,0,1,0,8.53,8.54L135.91,198a1,1,0,0,1,.9-.28,11.6,11.6,0,0,0,10.43-3.19h0a11.63,11.63,0,0,0,2.86-11.73l-5.54,5.55a1,1,0,0,1-.8.29l-5.36-.47a1,1,0,0,1-.89-.79l-1.28-6.17a1,1,0,0,1,.27-.91l5.26-5.26A11.4,11.4,0,0,0,139.05,174.7Zm-28.61,44.64a4.08,4.08,0,0,1-2.9-1.2h0a4.08,4.08,0,0,1,0-5.8,4.1,4.1,0,0,1,5.8,0,4.1,4.1,0,0,1-2.9,7Zm0-6.2a2.1,2.1,0,0,0-2.11,2.1,2.06,2.06,0,0,0,.62,1.48h0a2.14,2.14,0,0,0,3,0,2.06,2.06,0,0,0,.62-1.48,2.1,2.1,0,0,0-.62-1.49A2,2,0,0,0,110.44,213.14Z" fill="#093f68"></path><path d="M184.55,166.37h34.62a21.2,21.2,0,0,1,21.2,21.2v48.24a0,0,0,0,1,0,0h-77a0,0,0,0,1,0,0V187.56A21.2,21.2,0,0,1,184.55,166.37Z" fill="#ffffff"></path><path d="M240.37,236.81h-77a1,1,0,0,1-1-1V187.56a22.22,22.22,0,0,1,22.2-22.19h34.62a22.22,22.22,0,0,1,22.2,22.19v48.25A1,1,0,0,1,240.37,236.81Zm-76-2h75V187.56a20.22,20.22,0,0,0-20.2-20.19H184.55a20.22,20.22,0,0,0-20.2,20.19Z" fill="#093f68"></path><path d="M196.35,159.82h13.1a0,0,0,0,1,0,0v7.54a5.56,5.56,0,0,1-5.56,5.56h-2a5.56,5.56,0,0,1-5.56-5.56v-7.54A0,0,0,0,1,196.35,159.82Z" fill="#ffc9b0"></path><path d="M203.88,173.92h-2a6.57,6.57,0,0,1-6.56-6.56v-7.54a1,1,0,0,1,1-1h13.09a1,1,0,0,1,1,1v7.54A6.57,6.57,0,0,1,203.88,173.92Zm-6.53-13.1v6.54a4.56,4.56,0,0,0,4.56,4.56h2a4.56,4.56,0,0,0,4.56-4.56v-6.54Z" fill="#093f68"></path><path d="M157,125.42a2.08,2.08,0,0,1-.39-.32,7.52,7.52,0,0,1-1.56-3.72c-2.93-13.46-6.13-28.08.27-41.09,2.36-4.81,6.46-9.14,12.23-8.6-1.46-.14,2.29-8,2.76-8.58A15.5,15.5,0,0,1,178.23,58a43,43,0,0,1,12.89-1.77c7.56.12,15.63.7,23-1,3.32-.79,6.69-1.1,9.94-2.26,1-.34,9.24-3.66,9-4.73a24.31,24.31,0,0,1,.55,9.38A11.64,11.64,0,0,1,232,62.35c-.93,1.45-2.48,2.45-3.58,3.57,4.81.24,9.4,3.94,12.68,7.19a37.58,37.58,0,0,1,9.53,17c2.24,8.6,2.53,19-.67,27.32-.76,2-1.83,4.42-3.78,5.48s-2.95.14-4.87.2l-61,1.91-12.14.38C165.63,125.53,159.28,126.79,157,125.42Z" fill="#725858"></path><path d="M160.58,127.05a8.13,8.13,0,0,1-4.06-.78h0a2.88,2.88,0,0,1-.6-.48,8.42,8.42,0,0,1-1.81-4.2l0-.12c-2.88-13.28-6.15-28.33.38-41.62,2.83-5.76,7.09-9,11.84-9.2.32-2.78,3.1-7.94,3.27-8.15A16.34,16.34,0,0,1,178,57a43.82,43.82,0,0,1,13.19-1.81l3.77.08c6.36.16,12.94.33,18.94-1.09,1.21-.28,2.44-.51,3.62-.73A40.88,40.88,0,0,0,223.69,52c1.7-.6,7.37-3,8.31-4a1,1,0,0,1,.74-.77,1,1,0,0,1,1.21.72h0a25.48,25.48,0,0,1,.57,9.76,12.44,12.44,0,0,1-1.72,5.19,11.39,11.39,0,0,1-2.17,2.35c3.45.83,7.12,3.19,11.14,7.16a38.46,38.46,0,0,1,9.78,17.51c2.55,9.76,2.29,20.2-.7,27.93-.93,2.43-2.1,4.84-4.23,6a5.2,5.2,0,0,1-3.76.47,8.69,8.69,0,0,0-1.56-.15l-73.11,2.29c-.62,0-1.5.11-2.52.23A50.59,50.59,0,0,1,160.58,127.05Zm6-54.41c-5.54,0-8.85,5-10.36,8.09-6.23,12.66-3.17,26.72-.22,40.32l0,.11a6.61,6.61,0,0,0,1.3,3.25,1,1,0,0,0,.19.15h0c1.37.84,5.3.41,7.9.13,1.06-.12,2-.22,2.66-.24l73.12-2.29a9.81,9.81,0,0,1,1.95.18,3.28,3.28,0,0,0,2.48-.26c1.56-.85,2.52-2.88,3.32-5,2.84-7.36,3.07-17.34.63-26.7a36.57,36.57,0,0,0-9.26-16.6c-4.51-4.46-8.45-6.72-12-6.9a1,1,0,0,1-.88-.64,1,1,0,0,1,.22-1.06c.41-.42.87-.81,1.31-1.2a11.16,11.16,0,0,0,2.14-2.21,10.54,10.54,0,0,0,1.42-4.38,23.78,23.78,0,0,0-.15-7.29,39.9,39.9,0,0,1-8,3.73,43.77,43.77,0,0,1-6.52,1.57c-1.17.21-2.37.43-3.53.71-6.25,1.47-13,1.31-19.45,1.14l-3.75-.08a42.2,42.2,0,0,0-12.59,1.72,14.43,14.43,0,0,0-7.38,4.8c-.57.81-2.8,5.77-2.89,7.21a1,1,0,0,1-.75,1.74C167.2,72.66,166.91,72.64,166.62,72.64Zm1.06-2h0Z" fill="#093f68"></path><ellipse cx="165.47" cy="125.8" rx="12.72" ry="10.96" fill="#ffc9b0"></ellipse><path d="M165.47,137.77c-7.57,0-13.72-5.37-13.72-12s6.15-12,13.72-12,13.72,5.37,13.72,12S173,137.77,165.47,137.77Zm0-21.93c-6.47,0-11.72,4.47-11.72,10s5.25,10,11.72,10,11.72-4.47,11.72-10S171.93,115.84,165.47,115.84Z" fill="#093f68"></path><ellipse cx="239.65" cy="125.8" rx="12.72" ry="10.96" fill="#ffc9b0"></ellipse><path d="M239.65,137.77c-7.57,0-13.73-5.37-13.73-12s6.16-12,13.73-12,13.72,5.37,13.72,12S247.21,137.77,239.65,137.77Zm0-21.93c-6.47,0-11.73,4.47-11.73,10s5.26,10,11.73,10,11.72-4.47,11.72-10S246.11,115.84,239.65,115.84Z" fill="#093f68"></path><path d="M202.9,161.54a38.37,38.37,0,0,1-38.25-35.23c-.64-7.73-2.72-16.71.32-24.2,2.26-5.54,5.93-12.74,11.65-15.39a14.73,14.73,0,0,1,12.52.47,22.18,22.18,0,0,1,9.09,9,20.32,20.32,0,0,0,3.25,4.89c3.33,3.18,8.59,2.72,13.15,2.06-2.51-2.56-5.07-5.81-4.38-9.33.79-4,5.33-6,9.33-6.87a26.3,26.3,0,0,1,10.55-.54c6.52,1.25,9.23,5.91,9.93,12,1.66,14.61,3.64,31.58-4.39,44.72A38.69,38.69,0,0,1,202.9,161.54Z" fill="#ffc9b0"></path><path d="M202.9,162.54h0a39.38,39.38,0,0,1-39.25-36.15c-.13-1.59-.32-3.2-.52-4.92-.78-6.67-1.59-13.56.92-19.73C167.53,93.2,171.5,88,176.2,85.81a15.7,15.7,0,0,1,13.38.48,23.05,23.05,0,0,1,9.51,9.37c.21.35.4.71.6,1.06a14.41,14.41,0,0,0,2.48,3.61c2.58,2.46,6.56,2.49,10.41,2-2.12-2.44-4-5.44-3.31-8.79.72-3.66,4.3-6.38,10.1-7.65a27.64,27.64,0,0,1,10.95-.55c6.28,1.2,9.89,5.54,10.73,12.91l0,.18c1.7,14.9,3.63,31.79-4.55,45.18A39.65,39.65,0,0,1,202.9,162.54Zm-20.72-76A12.34,12.34,0,0,0,177,87.62c-4.22,2-7.86,6.82-11.14,14.87-2.32,5.69-1.54,12.33-.78,18.75.2,1.73.39,3.37.53,5a37.33,37.33,0,0,0,6.09,17.59,37.39,37.39,0,0,0,63.08-1.21c7.81-12.8,5.93-29.32,4.26-43.91l0-.17c-.74-6.49-3.72-10.15-9.12-11.18a25.8,25.8,0,0,0-10.14.54c-2.88.63-7.82,2.27-8.57,6.08-.61,3.13,1.88,6.16,4.11,8.44a1,1,0,0,1,.23,1,1,1,0,0,1-.8.67c-5.2.76-10.5,1-14-2.32a16.37,16.37,0,0,1-2.85-4.09c-.19-.35-.38-.69-.58-1a21,21,0,0,0-8.67-8.57A14.69,14.69,0,0,0,182.18,86.53Z" fill="#093f68"></path><path d="M241.3,111a42.12,42.12,0,0,1-5.63,18.61,38.47,38.47,0,0,1-14.91,13.94c-.7-6.56-8.63-11.74-18.3-11.74-9.47,0-17.26,5-18.25,11.31a38.2,38.2,0,0,1-19.56-30.33c-.18-2.26-.5-4.63-.77-7-1.34,6.65.23,14,.77,20.55a38.38,38.38,0,0,0,71,16.83C241.47,133.65,242.05,122.16,241.3,111Zm-38.84,26.52c5.57,0,10.08,3.12,10.08,7a5.09,5.09,0,0,1-.63,2.43c-1.42,2.65-5.12,4.54-9.45,4.54s-8.27-2-9.59-4.8a5.07,5.07,0,0,1-.5-2.17C192.37,140.65,196.89,137.53,202.46,137.53Z" fill="#725858"></path><path d="M202.89,162.54a39.38,39.38,0,0,1-39.24-36.15c-.13-1.58-.32-3.2-.52-4.91-.62-5.29-1.27-10.75-.23-15.92a1,1,0,0,1,1-.8,1,1,0,0,1,.95.89c.08.73.16,1.45.25,2.17.2,1.7.39,3.3.52,4.9a37.23,37.23,0,0,0,17.89,28.86c1.9-6.22,9.71-10.76,18.92-10.76,9.37,0,17.37,4.81,19,11.19a37.4,37.4,0,0,0,13.33-12.91c3.07-5,4.86-11,5.49-18.18a1,1,0,0,1,1-.91h0a1,1,0,0,1,1,.93c.66,9.76.59,22.3-5.77,32.72A39.68,39.68,0,0,1,202.89,162.54ZM165,120.38c0,.29.07.58.11.86.2,1.73.39,3.36.53,5a37.38,37.38,0,0,0,6.1,17.6,37.38,37.38,0,0,0,63.07-1.2c4.1-6.72,5.46-14.44,5.71-21.66a38,38,0,0,1-4,9.18,39.5,39.5,0,0,1-15.3,14.3,1,1,0,0,1-.94,0,1,1,0,0,1-.52-.78c-.65-6.08-8.25-10.84-17.31-10.84-8.76,0-16.35,4.59-17.26,10.46a1,1,0,0,1-.55.75,1,1,0,0,1-.93,0A39.19,39.19,0,0,1,165,120.38Zm37.45,32.09c-4.75,0-9-2.16-10.49-5.37a6.06,6.06,0,0,1-.6-2.6c0-4.4,5-8,11.09-8s11.08,3.57,11.08,8a6,6,0,0,1-.75,2.9C211.14,150.48,207.09,152.47,202.46,152.47Zm0-13.94c-5,0-9.09,2.68-9.09,6a4.07,4.07,0,0,0,.41,1.74c1.17,2.49,4.74,4.23,8.68,4.23s7.28-1.62,8.57-4a4.06,4.06,0,0,0,.51-1.95C211.54,141.21,207.47,138.53,202.46,138.53Z" fill="#093f68"></path><circle cx="185.13" cy="117.58" r="3.55" fill="#093f68"></circle><circle cx="221.78" cy="117.58" r="3.55" fill="#093f68"></circle><path d="M202.71,130.53a21.3,21.3,0,0,1-3.44-.29,1,1,0,0,1,.35-2,16.43,16.43,0,0,0,5.37,0c.31-.92-1.05-4.83-3-8.54a1,1,0,0,1,1.77-.93c1,1.85,4,8.07,3,10.36a1.82,1.82,0,0,1-1.22,1A12.35,12.35,0,0,1,202.71,130.53Z" fill="#093f68"></path><path d="M204.07,146a20.56,20.56,0,0,1-8.16-1.83,1,1,0,0,1,.87-1.8c.07,0,6.81,3.21,12.23.57a1,1,0,1,1,.87,1.79A13.06,13.06,0,0,1,204.07,146Z" fill="#093f68"></path><rect x="198.13" y="174.34" width="9.7" height="7.64" rx="2.82" fill="#f56132"></rect><path d="M205,183h-4.07a3.83,3.83,0,0,1-3.82-3.82v-2a3.83,3.83,0,0,1,3.82-3.82H205a3.82,3.82,0,0,1,3.82,3.82v2A3.83,3.83,0,0,1,205,183Zm-4.07-7.64a1.83,1.83,0,0,0-1.82,1.82v2a1.83,1.83,0,0,0,1.82,1.82H205a1.83,1.83,0,0,0,1.82-1.82v-2a1.83,1.83,0,0,0-1.82-1.82Z" fill="#093f68"></path><polygon points="200.19 181.98 194.07 216.69 202.98 228.36 209.65 216.11 205.76 181.98 200.19 181.98" fill="#f56132"></polygon><path d="M203,229.36a1,1,0,0,1-.8-.39l-8.9-11.68a1,1,0,0,1-.19-.78l6.12-34.71a1,1,0,0,1,1-.82h5.57a1,1,0,0,1,1,.88L210.64,216a.94.94,0,0,1-.11.59l-6.68,12.25a1,1,0,0,1-.8.52Zm-7.85-12.93,7.71,10.1,5.78-10.62L204.87,183H201Z" fill="#093f68"></path><path d="M195.35,109.32H174.81a2,2,0,0,1,0-4h20.54a2,2,0,0,1,0,4Z" fill="#093f68"></path><path d="M233.37,109.32H212.83a2,2,0,1,1,0-4h20.54a2,2,0,0,1,0,4Z" fill="#093f68"></path><path d="M222.62,236.81a1,1,0,0,1-1-1V184.75a1,1,0,0,1,2,0v51.06A1,1,0,0,1,222.62,236.81Z" fill="#093f68"></path><path d="M181.1,236.81a1,1,0,0,1-1-1V184.75a1,1,0,0,1,2,0v51.06A1,1,0,0,1,181.1,236.81Z" fill="#093f68"></path><g id="ahcQ9Z"><path d="M310.35,146.63a2.16,2.16,0,0,0-1.68-2c-.81-.18-1.63-.31-2.45-.43a.53.53,0,0,1-.48-.41c-.25-.65-.52-1.29-.8-1.93a.41.41,0,0,1,0-.49c.49-.68,1-1.36,1.45-2.06a2.15,2.15,0,0,0-.19-2.63c-.75-.82-1.55-1.6-2.34-2.39a2.3,2.3,0,0,0-3.13-.28l-1.84,1.3a.4.4,0,0,1-.49.05c-.69-.3-1.39-.59-2.1-.86a.44.44,0,0,1-.32-.38c-.11-.75-.24-1.5-.37-2.25a2.27,2.27,0,0,0-2.17-2c-1.15,0-2.31,0-3.47,0a2.2,2.2,0,0,0-2.09,1.72c-.19.84-.32,1.69-.46,2.54a.44.44,0,0,1-.32.38c-.67.27-1.34.56-2,.85a.39.39,0,0,1-.46,0c-.67-.5-1.34-1-2-1.45a2.15,2.15,0,0,0-2.65.17c-.88.81-1.74,1.64-2.55,2.52a2.23,2.23,0,0,0-.15,2.95c.45.65.92,1.29,1.37,1.94a.47.47,0,0,1,0,.35c-.28.72-.58,1.44-.88,2.16a.4.4,0,0,1-.27.22l-2.25.39a2.24,2.24,0,0,0-2,2.1c0,1.21,0,2.42,0,3.62a2.16,2.16,0,0,0,1.67,2c.85.2,1.73.33,2.59.47a.44.44,0,0,1,.37.3c.27.69.56,1.37.86,2a.39.39,0,0,1,0,.44c-.46.62-.91,1.24-1.35,1.87a2.29,2.29,0,0,0,.26,3.05c.73.74,1.46,1.47,2.2,2.19a2.28,2.28,0,0,0,3.11.24l1.88-1.34a.37.37,0,0,1,.41,0c.64.28,1.29.56,1.94.8a.5.5,0,0,1,.36.45q.17,1.11.36,2.22A2.25,2.25,0,0,0,290,167c1.21,0,2.43,0,3.64,0a2.17,2.17,0,0,0,2-1.69c.18-.82.31-1.66.44-2.49a.49.49,0,0,1,.35-.43c.68-.26,1.35-.54,2-.83a.37.37,0,0,1,.44,0c.62.46,1.25.9,1.88,1.35a2.46,2.46,0,0,0,1.51.46,2,2,0,0,0,1.35-.55c.8-.75,1.56-1.53,2.34-2.31a2.29,2.29,0,0,0,.28-3.18c-.43-.62-.86-1.23-1.3-1.83a.39.39,0,0,1-.05-.44c.3-.68.59-1.36.85-2.05a.44.44,0,0,1,.39-.31c.75-.11,1.5-.24,2.25-.36a2.28,2.28,0,0,0,2-2.15C310.39,149,310.38,147.81,310.35,146.63Zm-18.54,9.8a8,8,0,1,1,8-8A8,8,0,0,1,291.81,156.43Z" fill="#f56132" stroke="#093f68" stroke-linecap="round" stroke-linejoin="round" stroke-width="2"></path></g><g id="ahcQ9Z-2" data-name="ahcQ9Z"><path d="M295.91,111.85a1.65,1.65,0,0,0-1.27-1.54c-.62-.13-1.24-.23-1.86-.33a.41.41,0,0,1-.37-.3c-.19-.5-.4-1-.61-1.47a.33.33,0,0,1,0-.37c.38-.52.76-1,1.11-1.57a1.64,1.64,0,0,0-.15-2c-.57-.62-1.18-1.21-1.77-1.81a1.74,1.74,0,0,0-2.38-.22l-1.39,1a.32.32,0,0,1-.38,0q-.78-.34-1.59-.66a.31.31,0,0,1-.24-.29c-.09-.57-.19-1.13-.29-1.7a1.71,1.71,0,0,0-1.64-1.48c-.88,0-1.76,0-2.63,0a1.66,1.66,0,0,0-1.59,1.31c-.15.63-.24,1.28-.35,1.92a.33.33,0,0,1-.24.29c-.51.2-1,.42-1.52.65a.32.32,0,0,1-.36,0c-.5-.38-1-.75-1.53-1.1a1.67,1.67,0,0,0-2,.13c-.67.61-1.32,1.25-1.93,1.91a1.68,1.68,0,0,0-.11,2.24c.34.5.69,1,1,1.47a.32.32,0,0,1,0,.27c-.21.55-.43,1.1-.66,1.64a.39.39,0,0,1-.21.17l-1.71.29a1.71,1.71,0,0,0-1.52,1.6c0,.91,0,1.83,0,2.74a1.64,1.64,0,0,0,1.26,1.53c.65.14,1.32.24,2,.36a.31.31,0,0,1,.28.22c.2.52.42,1,.65,1.55a.27.27,0,0,1,0,.33c-.34.47-.69.94-1,1.42a1.72,1.72,0,0,0,.2,2.31c.55.56,1.1,1.12,1.66,1.67a1.75,1.75,0,0,0,2.37.18l1.43-1a.27.27,0,0,1,.31,0c.48.21,1,.42,1.47.61a.37.37,0,0,1,.27.34c.08.56.18,1.12.28,1.68a1.69,1.69,0,0,0,1.57,1.48q1.38,0,2.76,0a1.66,1.66,0,0,0,1.54-1.29c.13-.62.23-1.25.33-1.88a.37.37,0,0,1,.26-.33c.52-.19,1-.41,1.53-.63a.29.29,0,0,1,.33,0l1.43,1a1.75,1.75,0,0,0,1.15.35,1.5,1.5,0,0,0,1-.42c.6-.57,1.19-1.16,1.77-1.74a1.75,1.75,0,0,0,.22-2.42l-1-1.39a.29.29,0,0,1,0-.33c.22-.52.44-1,.64-1.56a.32.32,0,0,1,.29-.23l1.71-.28a1.72,1.72,0,0,0,1.49-1.63C295.94,113.65,295.93,112.75,295.91,111.85Zm-14.07,7.44a6.08,6.08,0,1,1,6.08-6.07A6.08,6.08,0,0,1,281.84,119.29Z" fill="#ffbc0e" stroke="#093f68" stroke-linecap="round" stroke-linejoin="round" stroke-width="2"></path></g><polygon points="304.56 226.71 264.87 226.71 264.87 190.86 273.91 181.01 304.56 181.01 304.56 226.71" fill="#70cc40"></polygon><path d="M304.56,227.71H264.87a1,1,0,0,1-1-1V190.86a1,1,0,0,1,.27-.68l9-9.85a1,1,0,0,1,.74-.32h30.65a1,1,0,0,1,1,1v45.7A1,1,0,0,1,304.56,227.71Zm-38.69-2h37.69V182H274.35l-8.48,9.24Z" fill="#093f68"></path><polygon points="298.43 221.17 258.74 221.17 258.74 185.32 267.78 175.47 298.43 175.47 298.43 221.17" fill="#fff"></polygon><path d="M298.43,222.17H258.74a1,1,0,0,1-1-1V185.32a1,1,0,0,1,.27-.68l9-9.85a1,1,0,0,1,.74-.32h30.65a1,1,0,0,1,1,1v45.7A1,1,0,0,1,298.43,222.17Zm-38.69-2h37.69v-43.7H268.22l-8.48,9.24Z" fill="#093f68"></path><path d="M268.16,186.32h-9.42a1,1,0,0,1,0-2h8.42v-8.85a1,1,0,1,1,2,0v9.85A1,1,0,0,1,268.16,186.32Z" fill="#093f68"></path><path d="M271.83,191.05h-5.18a1,1,0,0,1,0-2h5.18a1,1,0,0,1,0,2Z" fill="#dfeaef"></path><path d="M292.64,191.05H276.79a1,1,0,0,1,0-2h15.85a1,1,0,0,1,0,2Z" fill="#dfeaef"></path><path d="M271.83,198h-5.18a1,1,0,0,1,0-2h5.18a1,1,0,0,1,0,2Z" fill="#dfeaef"></path><path d="M292.64,198H276.79a1,1,0,0,1,0-2h15.85a1,1,0,0,1,0,2Z" fill="#dfeaef"></path><path d="M271.83,204.86h-5.18a1,1,0,0,1,0-2h5.18a1,1,0,0,1,0,2Z" fill="#dfeaef"></path><path d="M292.64,204.86H276.79a1,1,0,0,1,0-2h15.85a1,1,0,0,1,0,2Z" fill="#dfeaef"></path><path d="M271.83,211.76h-5.18a1,1,0,0,1,0-2h5.18a1,1,0,0,1,0,2Z" fill="#dfeaef"></path><path d="M292.64,211.76H276.79a1,1,0,0,1,0-2h15.85a1,1,0,0,1,0,2Z" fill="#dfeaef"></path><path d="M89.62,125.18H142a0,0,0,0,1,0,0V153a2.34,2.34,0,0,1-2.34,2.34H92A2.34,2.34,0,0,1,89.62,153V125.18A0,0,0,0,1,89.62,125.18Z" fill="#fff"></path><path d="M139.62,156.37H92A3.35,3.35,0,0,1,88.62,153V125.18a1,1,0,0,1,1-1H142a1,1,0,0,1,1,1V153A3.35,3.35,0,0,1,139.62,156.37Zm-49-30.19V153A1.36,1.36,0,0,0,92,154.37h47.65A1.35,1.35,0,0,0,141,153V126.18Z" fill="#093f68"></path><path d="M92,119.69h47.65A2.34,2.34,0,0,1,142,122v3.14a0,0,0,0,1,0,0H89.62a0,0,0,0,1,0,0V122A2.34,2.34,0,0,1,92,119.69Z" fill="#ffffff"></path><path d="M142,126.18H89.62a1,1,0,0,1-1-1V122A3.35,3.35,0,0,1,92,118.69h47.65A3.35,3.35,0,0,1,143,122v3.15A1,1,0,0,1,142,126.18Zm-51.34-2H141V122a1.34,1.34,0,0,0-1.34-1.34H92A1.35,1.35,0,0,0,90.62,122Z" fill="#093f68"></path><path d="M105.4,136.63a4.19,4.19,0,0,0-1.46-1.09,4,4,0,0,0-1.43-.27,4.82,4.82,0,0,0-1.93.38,4.34,4.34,0,0,0-1.48,1,4.76,4.76,0,0,0-1,1.56,5.44,5.44,0,0,0-.34,1.91,6.06,6.06,0,0,0,.34,2,4.89,4.89,0,0,0,1,1.61,4.37,4.37,0,0,0,1.48,1.06,4.65,4.65,0,0,0,1.93.39,3.47,3.47,0,0,0,1.62-.4,4.27,4.27,0,0,0,1.46-1.27l2,1.44a5.54,5.54,0,0,1-2.27,1.86,7,7,0,0,1-2.85.58,8,8,0,0,1-2.91-.51,6.7,6.7,0,0,1-2.29-1.46,6.63,6.63,0,0,1-1.5-2.25,7.68,7.68,0,0,1-.55-2.93,7.92,7.92,0,0,1,.55-3,6.65,6.65,0,0,1,1.5-2.3,6.56,6.56,0,0,1,2.29-1.46,7.81,7.81,0,0,1,2.91-.52,6.68,6.68,0,0,1,2.59.5,6.19,6.19,0,0,1,2.22,1.67Z" fill="#093f68"></path><path d="M113.14,135.62h-4.21v-2.21h10.86v2.21h-4.21v11.51h-2.44Z" fill="#093f68"></path><path d="M121.79,140.33a7.92,7.92,0,0,1,.54-3,6.47,6.47,0,0,1,3.79-3.76,7.86,7.86,0,0,1,2.92-.52,8.17,8.17,0,0,1,2.94.48,6.54,6.54,0,0,1,2.31,1.44,6.72,6.72,0,0,1,1.51,2.29,7.87,7.87,0,0,1,.54,3,7.68,7.68,0,0,1-.54,2.93,6.84,6.84,0,0,1-1.51,2.27,7.1,7.1,0,0,1-2.31,1.48,8.18,8.18,0,0,1-2.94.55,8.07,8.07,0,0,1-2.92-.51,6.8,6.8,0,0,1-2.29-1.46,6.63,6.63,0,0,1-1.5-2.25A7.68,7.68,0,0,1,121.79,140.33Zm2.56-.16a5.82,5.82,0,0,0,.34,2,4.57,4.57,0,0,0,1,1.61,4.27,4.27,0,0,0,1.48,1.06,5,5,0,0,0,3.86,0,4.45,4.45,0,0,0,1.5-1.06,4.7,4.7,0,0,0,.95-1.61,5.82,5.82,0,0,0,.34-2,5.22,5.22,0,0,0-.34-1.91,4.57,4.57,0,0,0-.95-1.56,4.42,4.42,0,0,0-1.5-1,5.09,5.09,0,0,0-3.86,0,4.25,4.25,0,0,0-1.48,1,4.45,4.45,0,0,0-1,1.56A5.22,5.22,0,0,0,124.35,140.17Z" fill="#093f68"></path></g></svg>