<svg version="1.1" id="Layer_1" xmlns="http://www.w3.org/2000/svg" xmlns:xlink="http://www.w3.org/1999/xlink" x="0px" y="0px" viewBox="0 0 400 300" xml:space="preserve" width="406" height="306" class="illustration styles_illustrationTablet__1DWOa"><style type="text/css">
	.st0{fill:#725858;}
	.st1{fill:#093F68;}
	.st2{fill:#FFC9B0;}
	.st3{fill:#68E1FD;}
	.st4{fill:#FFFFFF;}
	.st5{fill:#FFBC0E;}
	.st6{fill:#F56132;}
	.st7{fill:#70CC40;}
	.st8{fill:#DFEAEF;}
</style><g id="_02_problem_solving_outline"><path class="st0" d="M114.7,69.8h7c17.8,0,32.3,14.5,32.3,32.3v24.1l0,0H82.4l0,0v-24.1C82.4,84.3,96.9,69.8,114.7,69.8z"></path><path class="st1" d="M154.1,127.2H82.4c-0.6,0-1-0.4-1-1v-24.1c0-18.4,14.9-33.3,33.3-33.3h7c18.4,0,33.3,14.9,33.3,33.3v24.1
		C155.1,126.7,154.6,127.2,154.1,127.2z M83.4,125.2h69.7v-23.1c0-17.3-14-31.3-31.3-31.3h-7c-17.3,0-31.3,14-31.3,31.3L83.4,125.2z
		"></path><path class="st2" d="M182.2,159.5c0.3-0.1,4.9-8.7,4.9-8.7s-0.2-5.4-0.2-8.1s2-3.1,2.6-1.8s0.9,5.1,1,5.1s3.1-8.6,3.9-9
		s8.7,3.7,9.1,6.4c0.2,1.3-1.1,5.6-2.7,9.7c-0.4,1.1-4.4,3.6-4.4,3.6s-4.6,6.1-5.9,7.5L182.2,159.5z"></path><path class="st1" d="M190.6,165.3c-0.2,0-0.3,0-0.5-0.1l-8.4-4.9c-0.5-0.3-0.6-0.9-0.4-1.4c0.1-0.1,0.1-0.2,0.2-0.2
		c0.4-0.6,2.6-4.5,4.6-8.2c0-1.1-0.2-5.5-0.2-7.8s1.2-3.2,2.2-3.4c1-0.2,2,0.3,2.4,1.3c0.2,0.6,0.4,1.2,0.5,1.8
		c2-5.2,2.5-5.9,3.1-6.2c0.3-0.2,0.9-0.4,3.7,1c1.1,0.6,6.4,3.4,6.8,6.2c0.3,1.8-1.6,7.2-2.7,10.2c-0.5,1.3-3.3,3.2-4.7,4
		c-0.7,1-4.6,6.1-5.8,7.5C191.1,165.2,190.9,165.3,190.6,165.3z M183.6,159.1l6.8,3.9c1.7-2,5.3-6.8,5.3-6.9
		c0.1-0.1,0.2-0.2,0.3-0.2c1.5-0.8,2.8-1.9,4-3.1c2-5.2,2.7-8.5,2.6-9.2c-0.1-0.6-1.1-1.8-3.6-3.4c-1.3-0.8-2.6-1.5-4.1-2.1
		c-0.7,1.2-2.1,5-2.7,6.5c-0.9,2.4-0.9,2.5-1.7,2.5s-0.9-0.6-1.1-1.9c-0.1-1.3-0.4-2.5-0.8-3.8c0-0.1-0.1-0.1-0.1-0.1
		c-0.2,0-0.6,0.5-0.6,1.5c0,2.6,0.2,8,0.2,8c0,0.2,0,0.3-0.1,0.5C185.6,155.7,184.3,158,183.6,159.1L183.6,159.1z"></path><path class="st1" d="M193,153.2c-0.5,0-1-0.4-1-0.9c0-2-0.7-4-2.1-5.5c-0.4-0.4-0.3-1,0.1-1.4c0.4-0.3,0.9-0.4,1.3,0
		c1.7,1.9,2.6,4.3,2.7,6.8C194,152.7,193.6,153.2,193,153.2C193.1,153.2,193.1,153.2,193,153.2L193,153.2z"></path><path class="st3" d="M181.6,156.4c0,0-3.8,11.7-14.6,15.1c-5.2,1.7-14.3-5.4-19-9.7c-5.4-4.9-12.4-7.6-19.6-7.5
		c-3.9,0.1-8.8-0.3-14.3-0.4c-9.7-0.2-17.6,7.6-17.8,17.2c0,0.1,0,0.2,0,0.3v40.2h45.2l0.1-26.4v-6.9c0,0,12.5,18,31.4,7.7
		c15.1-8.2,19.2-21.5,20.6-23.4L181.6,156.4z"></path><path class="st1" d="M141.5,212.6H96.3c-0.6,0-1-0.4-1-1v-40.2c0-10.2,8.3-18.5,18.5-18.5c0.1,0,0.2,0,0.3,0c2.4,0,4.7,0.1,6.8,0.2
		c2.7,0.1,5.3,0.2,7.5,0.2c7.5-0.1,14.8,2.7,20.3,7.8c7.8,7.1,14.6,10.6,18.1,9.5c10.2-3.2,13.9-14.4,13.9-14.5
		c0.1-0.3,0.3-0.5,0.6-0.6c0.3-0.1,0.6-0.1,0.8,0l11.9,6.3c0.5,0.3,0.7,0.9,0.4,1.3c0,0,0,0.1-0.1,0.1c-0.3,0.5-0.6,1.1-0.8,1.6
		c-4.1,9.4-11.1,17.2-20.1,22.1c-15.2,8.3-26.6-1.2-30.8-5.8l-0.1,30.5C142.5,212.2,142.1,212.6,141.5,212.6
		C141.5,212.6,141.5,212.6,141.5,212.6z M97.3,210.6h43.2l0.1-32.3c0-0.6,0.5-1,1-1c0.3,0,0.6,0.2,0.8,0.4
		c0.5,0.7,12.2,17.1,30.1,7.4c12.3-6.7,17.2-16.9,19.2-21.2c0.2-0.3,0.3-0.6,0.4-0.9l-9.9-5.2c-1.3,3.1-5.6,11.7-14.8,14.7
		c-5.8,1.9-15-5.4-20-9.9c-5.2-4.7-12-7.3-19-7.3c-2.2,0-4.8-0.1-7.6-0.2c-2.2-0.1-4.4-0.2-6.8-0.2c-4.4-0.1-8.7,1.6-11.8,4.7
		c-3.2,3.1-5,7.4-5,11.8L97.3,210.6z"></path><path class="st2" d="M112.6,149.9h10.2l0,0v5.9c0,2.4-1.9,4.3-4.3,4.3H117c-2.4,0-4.3-1.9-4.3-4.3L112.6,149.9L112.6,149.9z"></path><path class="st1" d="M118.5,161.1H117c-3,0-5.3-2.4-5.3-5.4v-5.9c0-0.6,0.4-1,1-1h10.2c0.6,0,1,0.4,1,1v5.9
		C123.9,158.7,121.5,161.1,118.5,161.1C118.5,161.1,118.5,161.1,118.5,161.1z M113.6,150.9v4.9c0,1.8,1.5,3.3,3.3,3.4h1.5
		c1.9,0,3.3-1.5,3.3-3.4l0,0v-4.9H113.6z"></path><ellipse class="st2" cx="88.5" cy="123.3" rx="9.9" ry="8.6"></ellipse><path class="st1" d="M88.5,132.9c-6,0-10.9-4.3-10.9-9.6s4.9-9.6,10.9-9.6s10.9,4.3,10.9,9.6S94.5,132.9,88.5,132.9z M88.5,115.7
		c-4.9,0-8.9,3.4-8.9,7.6s4,7.6,8.9,7.6s8.9-3.4,8.9-7.6S93.4,115.7,88.5,115.7z"></path><ellipse class="st2" cx="146.4" cy="123.3" rx="9.9" ry="8.6"></ellipse><path class="st1" d="M146.4,132.9c-6,0-10.9-4.3-10.9-9.6s4.9-9.6,10.9-9.6s10.9,4.3,10.9,9.6S152.5,132.9,146.4,132.9z
		 M146.4,115.7c-4.9,0-8.9,3.4-8.9,7.6s4,7.6,8.9,7.6s8.9-3.4,8.9-7.6S151.4,115.7,146.4,115.7z"></path><path class="st2" d="M117.7,151.2L117.7,151.2c-16.6,0-30-13.4-30-30V93.5c0,0,16.1-7.3,32.4-7.3c9.7-0.1,19.2,2.5,27.5,7.3v27.8
		C147.6,137.8,134.3,151.2,117.7,151.2z"></path><path class="st1" d="M117.7,151.2c-17.1,0-31-12.9-31-30l0,0V93.5c0-0.4,0.2-0.7,0.6-0.9c0.7-0.3,16.5-7.4,32.8-7.4h0.1
		c9.8-0.1,19.5,2.5,28,7.5c0.3,0.2,0.4,0.5,0.4,0.8v27.8C148.7,138.3,134.8,151.2,117.7,151.2z M88.7,94.1v27.1
		c0.7,16,14.3,28.4,30.3,27.7c15-0.7,27-12.7,27.7-27.7V94c-8.1-4.6-17.2-6.9-26.5-6.9C106,87.2,91.8,92.8,88.7,94.1L88.7,94.1z"></path><circle class="st1" cx="103.8" cy="116.9" r="2.8"></circle><circle class="st1" cx="132.5" cy="116.9" r="2.8"></circle><path class="st1" d="M117.6,127.2c-0.9,0-1.8-0.1-2.7-0.2c-0.6-0.1-0.9-0.6-0.8-1.2c0.1-0.6,0.6-0.9,1.2-0.8l0,0
		c1.3,0.2,2.7,0.2,4,0.1c0.1-0.9-1-3.7-2.3-6.4c-0.3-0.5-0.1-1.1,0.4-1.4c0.5-0.3,1.1-0.1,1.4,0.4c1,1.9,3.2,6.4,2.3,8.3
		c-0.2,0.5-0.6,0.8-1.1,0.9C119.1,127.1,118.4,127.2,117.6,127.2z"></path><path class="st1" d="M109.5,109.4L109.5,109.4H96.3c-1.1,0-2-0.9-2-2s0.9-2,2-2l0,0h13.2c1.1,0,2,0.9,2,2S110.6,109.4,109.5,109.4z
		"></path><path class="st1" d="M128.4,109.7c-1.1,0-2-0.8-2.1-1.9s0.8-2,1.9-2.1l13.2-0.7c1.1-0.1,2,0.8,2.1,1.9c0.1,1.1-0.8,2-1.9,2.1
		l-13.2,0.7L128.4,109.7z"></path><path class="st4" d="M122.8,131.5l-10.2-1.9c0,0-1.4,10.9,2.4,13.8S121.6,142.4,122.8,131.5z"></path><path class="st1" d="M117.3,145.3c-1.1,0-2.1-0.4-2.9-1.1c-4.2-3.1-3-13.5-2.8-14.7c0-0.3,0.2-0.5,0.4-0.7c0.2-0.2,0.5-0.2,0.8-0.2
		l10.2,1.9c0.5,0.1,0.9,0.6,0.8,1.1c-0.9,7.9-2.6,12.2-5.1,13.4C118.2,145.2,117.8,145.3,117.3,145.3z M113.5,130.8
		c-0.3,3.4-0.3,9.9,2.1,11.8c1.3,1,2,0.7,2.3,0.6c0.8-0.4,2.8-2.1,3.8-10.8L113.5,130.8z"></path><path class="st5" d="M201.6,127.6c0,3.7,1.8,8.7,7.7,9.5c2.4,0.4,4.8,0,7-1.1l-0.2,18l-19-0.2c1.2-2.1,1.6-4.6,1.2-7
		c-0.7-5.9-5.6-7.8-9.3-7.9c-4.2,0-6.4,1.1-8.8,4.4c-2.9,4-0.8,10.3-0.8,10.3l-18.4-0.1l0.6-55.1l55.1,0.6l-0.2,19.4
		c0,0-6.2-2.2-10.3,0.6C202.8,121.2,201.7,123.3,201.6,127.6z"></path><path class="st1" d="M216.1,155L216.1,155l-19-0.2c-0.6,0-1-0.5-1-1c0-0.2,0.1-0.4,0.2-0.5c1-1.9,1.4-4.2,1.1-6.3
		c-0.8-6.6-7.1-7-8.3-7c-3.9-0.1-5.8,0.9-7.9,4c-2.5,3.6-0.7,9.3-0.7,9.4c0.1,0.3,0,0.6-0.1,0.9c-0.2,0.3-0.5,0.4-0.8,0.4l-18.4-0.1
		c-0.3,0-0.5-0.1-0.7-0.3c-0.2-0.2-0.3-0.4-0.3-0.7l0.6-55.1c0-0.3,0.1-0.5,0.3-0.7c0.2-0.2,0.4-0.3,0.7-0.3l55.1,0.6
		c0.6,0,1,0.4,1,1l-0.2,19.4c0,0.3-0.2,0.6-0.4,0.8c-0.3,0.2-0.6,0.2-0.9,0.1c-0.1,0-5.8-1.9-9.4,0.5c-3.1,2.1-4.1,4-4.1,7.9
		c0,1.2,0.3,7.6,6.8,8.5c2.2,0.4,4.4,0.1,6.3-0.9c0.5-0.3,1.1-0.2,1.4,0.3c0.1,0.2,0.2,0.4,0.2,0.5l-0.2,18c0,0.3-0.1,0.5-0.3,0.7
		C216.7,154.9,216.4,155,216.1,155z M198.7,152.8l16.4,0.2l0.1-15.5c-2,0.7-4.1,0.8-6.1,0.5c-6.4-0.9-8.6-6.2-8.5-10.5l0,0
		c0-4.5,1.4-7,5-9.5c3.3-2.2,7.7-1.6,9.9-1.1l0.2-17.1l-53.1-0.5l-0.5,53.1l16.1,0.2c-0.5-2.2-1-6.6,1.3-9.8c2.6-3.6,5-4.9,9.6-4.8
		c4.3,0,9.6,2.4,10.3,8.8C199.6,148.8,199.4,150.9,198.7,152.8L198.7,152.8z"></path><path class="st2" d="M149.5,162.1c1.9-0.5,2.8-5.9,3.9-7.4c2.3-3,6.4-5,10-5.9c0.7-0.3,1.5-0.2,2.1,0.1c-0.3,1-1.1,1.7-2,2.1
		c-1.5,0.9-3.1,1.8-4.7,2.5l8.9-2c1.1-0.3,2.3-0.4,3.5-0.3c0.3,0.1,0.6,0.2,0.9,0.5c0.1,0.2,0.2,0.4,0.2,0.6c0.3,1.3,0,2.7-0.9,3.7
		c-0.7,0.7-1.6,1.3-2.5,1.8c-1.9,1-4.6,1.9-6.1,3.6c-1.3,1.5-1.8,3.6-3.2,5.1L149.5,162.1z"></path><path class="st1" d="M159.6,167.3c-0.1,0-0.3,0-0.4-0.1l-10.1-4.2c-0.4-0.2-0.6-0.6-0.6-1c0-0.4,0.3-0.8,0.7-0.9
		c0.7-0.2,1.5-2.6,2-3.9c0.3-1.1,0.8-2.2,1.4-3.2c2.5-3.3,7.1-5.4,10.5-6.3c1-0.4,2.1-0.3,2.9,0.2c0.3,0.2,0.5,0.6,0.4,1
		c-0.2,0.8-0.6,1.5-1.3,2l2.3-0.5c1.3-0.4,2.6-0.5,3.9-0.3c0.6,0.1,1.1,0.4,1.4,0.8c0.2,0.3,0.3,0.6,0.4,0.9c0.4,1.6,0,3.3-1.1,4.6
		c-0.8,0.8-1.8,1.5-2.8,2c-0.6,0.3-1.2,0.6-1.8,0.9c-1.5,0.6-2.9,1.4-4.1,2.5c-0.6,0.7-1,1.5-1.4,2.3c-0.5,1-1.1,2-1.8,2.8
		C160.2,167.2,159.9,167.3,159.6,167.3z M151.4,161.8l7.9,3.4c0.4-0.6,0.7-1.2,1.1-1.9c0.4-1,1-1.9,1.7-2.7c1.4-1.3,3-2.3,4.7-3
		c0.6-0.3,1.2-0.5,1.7-0.8c0.8-0.4,1.6-0.9,2.2-1.6c0.7-0.8,0.9-1.8,0.7-2.8c0-0.1,0-0.1-0.1-0.2c-0.1,0-0.2-0.1-0.3-0.1
		c-1-0.1-2.1,0-3.1,0.3l-8.9,2c-0.5,0.1-1.1-0.2-1.2-0.7c-0.1-0.5,0.1-1,0.6-1.2c1.6-0.7,3.1-1.6,4.6-2.5c0.2-0.1,0.5-0.3,0.7-0.4
		h-0.1c-3.1,0.8-7.2,2.7-9.4,5.6c-0.5,0.8-0.8,1.7-1.1,2.6C152.7,159.2,152.1,160.5,151.4,161.8z"></path><path class="st3" d="M97.1,176.3c0,0,3.9,28.1,26.5,24.7s36-35.2,36-35.2l-9.6-8c0,0-18.8,28.9-26.6,25.3s-9-21.4-15.9-21.9
		S94.7,167.1,97.1,176.3z"></path><path class="st1" d="M119.9,202.2c-4.3,0.1-8.6-1.3-12.1-3.9c-9.3-7-11.5-20.7-11.7-21.8c-1.2-4.7-0.4-9.1,2.2-12.3
		c2.3-2.7,5.7-4.2,9.3-3.9c4.1,0.3,6.2,5.3,8.5,10.6c2.1,4.8,4.2,9.8,7.7,11.4c5.1,2.4,18.3-14,25.3-24.9c0.2-0.2,0.4-0.4,0.7-0.4
		c0.3-0.1,0.6,0,0.8,0.2l9.6,7.9c0.3,0.3,0.5,0.8,0.3,1.2c-2.6,5.8-5.8,11.4-9.6,16.5c-8.2,11.2-17.6,17.8-27.2,19.3
		C122.5,202.1,121.2,202.2,119.9,202.2z M106.8,162.2c-2.7,0-5.2,1.2-6.9,3.3c-2.2,2.7-2.9,6.4-1.8,10.5c0,0,0,0.1,0,0.1
		c0,0.1,2.1,14,10.9,20.6c4,3,8.9,4.1,14.5,3.2c20-3,32.8-29.3,35-33.9l-8.1-6.8c-3.4,5.2-17.2,25.1-25.4,25.1
		c-0.6,0-1.3-0.1-1.9-0.4c-4.2-1.9-6.5-7.2-8.7-12.4c-2-4.7-3.9-9.2-6.8-9.4C107.3,162.2,107,162.2,106.8,162.2z"></path><path class="st6" d="M248.5,175.1v55.1h-55.1v-55.1h19.4c0,0-2.1,6.2,0.7,10.3c2.3,3.4,4.5,4.5,8.7,4.5c3.8,0,8.6-1.9,9.4-7.8
		c0.4-2.4,0-4.9-1.1-7L248.5,175.1z"></path><path class="st1" d="M248.5,231.2h-55.1c-0.6,0-1-0.4-1-1v-55.1c0-0.6,0.4-1,1-1h19.4c0.3,0,0.6,0.2,0.8,0.4
		c0.2,0.3,0.2,0.6,0.1,0.9c0,0.1-1.9,5.8,0.6,9.4c2.1,3.1,4,4,7.9,4c1.3,0,7.6-0.3,8.4-6.9c0.3-2.2,0-4.4-1-6.3
		c-0.3-0.5-0.2-1.1,0.3-1.4c0.2-0.1,0.3-0.2,0.5-0.2h18.1c0.6,0,1,0.4,1,1v55.1C249.5,230.7,249.1,231.2,248.5,231.2
		C248.5,231.2,248.5,231.2,248.5,231.2z M194.4,229.2h53.1v-53.1H232c0.7,2,0.9,4.1,0.6,6.1c-0.8,6.4-6.1,8.6-10.4,8.6
		c-4.5,0-7-1.3-9.5-4.9c-2.3-3.3-1.7-7.7-1.2-9.9h-17.1V229.2z"></path><path class="st7" d="M303.6,120v55h-55v-18.4c-2,0.8-4.1,1-6.2,0.7c-5.9-0.8-7.8-5.6-7.8-9.4c0-4.2,1.1-6.4,4.5-8.7
		c3.2-2.2,7.6-1.4,9.5-0.9V120H303.6z"></path><path class="st1" d="M303.6,176.1h-55c-0.6,0-1-0.4-1-1V158c-1.7,0.5-3.5,0.6-5.3,0.3c-6.4-0.8-8.6-6.1-8.6-10.4
		c0-4.5,1.3-7,4.9-9.5c2.9-2,6.7-1.8,9-1.4v-17c0-0.6,0.4-1,1-1h55c0.6,0,1,0.4,1,1v55C304.6,175.6,304.2,176,303.6,176.1
		C303.6,176.1,303.6,176.1,303.6,176.1z M249.6,174.1h53V121h-53v17.2c0,0.6-0.4,1-1,1c-0.1,0-0.2,0-0.3,0c-1.3-0.3-5.7-1.2-8.6,0.8
		c-3.1,2.2-4.1,4-4.1,7.9c0,1.3,0.3,7.6,6.9,8.4c1.9,0.3,3.9,0.1,5.7-0.7c0.5-0.2,1.1,0,1.3,0.5c0.1,0.1,0.1,0.3,0.1,0.4
		L249.6,174.1z"></path><path class="st3" d="M303.6,175.1v55.1h-55.1v-19c-2.1,1.1-4.6,1.5-7,1.1c-5.9-0.8-7.8-5.7-7.8-9.4c0-4.2,1.1-6.4,4.5-8.7
		c4.1-2.8,10.3-0.7,10.3-0.7v-18.4H267c0,0-2.1-6.2,0.7-10.3c2.3-3.4,4.5-4.5,8.7-4.5c3.8,0,8.6,1.9,9.4,7.8c0.4,2.4,0,4.9-1.1,7
		H303.6z"></path><path class="st1" d="M303.6,231.2h-55.1c-0.6,0-1-0.4-1-1v-17.4c-2,0.7-4.1,0.9-6.1,0.6c-6.4-0.8-8.7-6.1-8.7-10.4
		c0-4.5,1.3-7,4.9-9.5c3.3-2.3,7.7-1.7,9.9-1.2v-17.2c0-0.6,0.4-1,1-1h17.2c-0.5-2.2-1.1-6.6,1.2-9.9c2.5-3.6,5-4.9,9.5-4.9
		c4.3,0,9.6,2.3,10.4,8.6c0.3,2.1,0.1,4.2-0.6,6.1h17.4c0.6,0,1,0.4,1,1v55.1C304.6,230.8,304.1,231.2,303.6,231.2
		C303.6,231.2,303.6,231.2,303.6,231.2z M249.5,229.2h53.1v-53.1h-17.9c-0.4,0-0.7-0.2-0.9-0.5c-0.2-0.3-0.2-0.7,0-1
		c1-1.9,1.4-4.2,1-6.3c-0.8-6.6-7.1-6.9-8.4-6.9c-3.9,0-5.7,0.9-7.9,4.1c-2.5,3.6-0.6,9.3-0.6,9.4c0.1,0.3,0.1,0.6-0.1,0.9
		c-0.2,0.3-0.5,0.4-0.8,0.4h-17.5v17.5c0,0.3-0.2,0.6-0.4,0.8c-0.3,0.2-0.6,0.2-0.9,0.1c-0.1,0-5.8-1.9-9.4,0.6
		c-3.1,2.1-4.1,4-4.1,7.9c0,1.2,0.3,7.6,6.9,8.4c2.2,0.3,4.4,0,6.3-1c0.5-0.3,1.1-0.2,1.4,0.3c0.1,0.2,0.2,0.3,0.2,0.5L249.5,229.2z
		"></path><rect class="st1" x="96.3" y="211.6" width="45.3" height="18.6"></rect><path class="st1" d="M141.6,231.2H96.3c-0.6,0-1-0.4-1-1v-18.6c0-0.6,0.4-1,1-1h45.3c0.6,0,1,0.4,1,1v18.6
		C142.6,230.8,142.2,231.2,141.6,231.2z M97.3,229.2h43.3v-16.6H97.3V229.2z"></path><path class="st1" d="M323.3,231.2H76.7c-0.6,0-1-0.4-1-1s0.4-1,1-1h246.5c0.6,0,1,0.4,1,1S323.8,231.2,323.3,231.2z"></path><path class="st8" d="M229.5,86.5c-0.6,0-1-0.4-1-1c0-0.3,0.1-0.5,0.3-0.7l7.7-8.3c0.4-0.4,1-0.4,1.4-0.1c0.4,0.4,0.4,1,0.1,1.4
		c0,0,0,0,0,0l-7.7,8.3C230.1,86.4,229.8,86.5,229.5,86.5z"></path><path class="st8" d="M245.6,95h-12.2c-0.6,0-1-0.4-1-1s0.4-1,1-1h12.2c0.6,0,1,0.4,1,1S246.1,95,245.6,95z"></path><path class="st8" d="M219.2,82.4H219c-0.5-0.1-0.9-0.6-0.9-1.1l1.2-8.2c0.1-0.6,0.6-0.9,1.1-0.9s0.9,0.6,0.9,1.1l0,0l-1.2,8.2
		C220.1,82,219.7,82.4,219.2,82.4z"></path></g></svg>