<svg xmlns="http://www.w3.org/2000/svg" viewBox="0 0 400 300" width="406" height="306" class="illustration styles_illustrationTablet__1DWOa"><g id="_494_motivation_outline" data-name="#494_motivation_outline"><path d="M260.53,90.41l1.63-3.22s-1.7-3.53-.33-5.85,2.76-5.31,4.37-4.48S268.51,78,268.51,78a2.86,2.86,0,0,1,2.34-2.09c1.81-.1,9.91,8.67,9.58,10.26-1,4.65-5.22,10.18-9.54,13.26L262.7,115,252,104.35Z" fill="#ffc9b0"></path><path d="M262.7,116a1,1,0,0,1-.7-.29l-10.7-10.67a1,1,0,0,1-.15-1.23l8.5-13.91,1.4-2.76c-.45-1.15-1.4-4.11-.08-6.33l.55-1c1.29-2.25,2.9-5.07,5.14-3.91l1.37.7a3.45,3.45,0,0,1,2.76-1.74c2-.07,6.6,5,7.49,6,3.43,4,3.22,5,3.13,5.41-1.06,5.15-5.67,10.76-9.74,13.73l-8.08,15.37a1,1,0,0,1-.74.52Zm-9.43-11.82,9.18,9.16L270,99a1.12,1.12,0,0,1,.31-.34c4.33-3.09,8.24-8.48,9.12-12.57-.35-1.69-7.06-8.86-8.59-9.14-1,.06-1.35,1.3-1.36,1.36a1,1,0,0,1-1.39.64s-.71-.34-2.35-1.18c-.53-.27-1.85,2-2.48,3.13-.19.33-.38.66-.57,1-.9,1.51,0,4.06.37,4.91a1,1,0,0,1,0,.88l-1.63,3.22a.43.43,0,0,1,0,.07Zm7.26-13.79h0Zm18.91-4.3Z" fill="#093f68"></path><path d="M268.51,78s7.72,6.52,5.45,8-5.9-2.52-5.9-2.52,3.25,4.63-.3,7" fill="#ffc9b0"></path><path d="M267.76,91.5a1,1,0,0,1-.83-.44,1,1,0,0,1,.27-1.39A2.51,2.51,0,0,0,268.37,88c.34-1.8-1.12-3.92-1.13-3.94a1,1,0,0,1,1.56-1.25c1,1.1,3.44,3.12,4.61,2.36.11-.75-2.51-3.83-5.54-6.39a1,1,0,0,1,1.29-1.53c1.5,1.27,6.37,5.59,6.21,8.11a1.89,1.89,0,0,1-.87,1.49,3.93,3.93,0,0,1-4.14-.25,5.21,5.21,0,0,1,0,1.76,4.43,4.43,0,0,1-2,3A1,1,0,0,1,267.76,91.5Z" fill="#093f68"></path><polygon points="174.38 217.2 195.86 229.09 221.94 217.2 221.94 190.22 174.38 190.22 174.38 217.2" fill="#093f68"></polygon><path d="M195.86,230.09a.94.94,0,0,1-.48-.13L173.9,218.07a1,1,0,0,1-.52-.87v-27a1,1,0,0,1,1-1h47.56a1,1,0,0,1,1,1v27a1,1,0,0,1-.59.91L196.28,230A1,1,0,0,1,195.86,230.09Zm-20.48-13.48L195.91,228l25-11.41V191.22H175.38Z" fill="#093f68"></path><path d="M136.92,90.41l-1.63-3.22s1.7-3.53.33-5.85-2.76-5.31-4.37-4.48S128.94,78,128.94,78a2.86,2.86,0,0,0-2.34-2.09c-1.81-.1-9.91,8.67-9.58,10.26,1,4.65,5.22,10.18,9.54,13.26L134.75,115l10.69-10.67Z" fill="#ffc9b0"></path><path d="M134.75,116h-.15a1,1,0,0,1-.74-.52l-8.07-15.37c-4.08-3-8.69-8.58-9.75-13.73C116,86,115.75,85,119.17,81c.89-1,5.42-6.14,7.49-6a3.45,3.45,0,0,1,2.76,1.74l1.37-.7c2.25-1.15,3.85,1.65,5.14,3.91l.55,1c1.32,2.22.37,5.19-.08,6.33l1.4,2.76,8.5,13.91a1,1,0,0,1-.15,1.23l-10.7,10.67A1,1,0,0,1,134.75,116ZM118,86.07c.88,4.09,4.79,9.48,9.12,12.57a1.12,1.12,0,0,1,.31.34L135,113.36l9.18-9.16-8.11-13.27a.43.43,0,0,1,0-.07l-1.63-3.22a1,1,0,0,1,0-.88c.41-.85,1.27-3.4.37-4.91-.19-.31-.38-.64-.57-1-.63-1.11-1.94-3.4-2.48-3.13-1.64.84-2.35,1.17-2.35,1.17a1,1,0,0,1-.85,0,1,1,0,0,1-.54-.64s-.38-1.29-1.43-1.35C125.08,77.21,118.37,84.38,118,86.07Zm0,0Z" fill="#093f68"></path><path d="M128.94,78s-7.72,6.52-5.45,8,5.9-2.52,5.9-2.52-3.25,4.63.3,7" fill="#ffc9b0"></path><path d="M129.69,91.5a1,1,0,0,1-.56-.17,4.43,4.43,0,0,1-2-3,5.21,5.21,0,0,1,0-1.76,3.93,3.93,0,0,1-4.14.25,1.89,1.89,0,0,1-.87-1.49c-.16-2.52,4.71-6.84,6.21-8.11a1,1,0,0,1,1.29,1.53c-3,2.56-5.65,5.64-5.5,6.46,1.13.69,3.57-1.33,4.57-2.43a1,1,0,0,1,1.56,1.25s-1.47,2.14-1.13,3.94a2.51,2.51,0,0,0,1.17,1.67,1,1,0,0,1,.27,1.39A1,1,0,0,1,129.69,91.5Z" fill="#093f68"></path><path d="M272,103.62s-25.3,44.74-50,63.69v37.55H174.38V166.42c-24.35-19.41-48.89-62.8-48.89-62.8l13.37-10.05c14.71,23.22,33.59,43.92,41.12,51.84h37.49c7.53-7.92,26.4-28.62,41.12-51.84Z" fill="#ffffff"></path><path d="M221.94,205.86H174.38a1,1,0,0,1-1-1v-38c-24.1-19.45-48.52-62.35-48.76-62.79a1,1,0,0,1,.27-1.29l13.37-10a1,1,0,0,1,1.44.27c14.5,22.87,33.08,43.32,40.71,51.37H217c7.62-8,26.19-28.48,40.71-51.38a1,1,0,0,1,1.45-.26l13.37,10a1,1,0,0,1,.26,1.29c-.25.45-25.41,44.67-49.89,63.69v37.06A1,1,0,0,1,221.94,205.86Zm-46.56-2h45.56V167.31a1,1,0,0,1,.39-.79c22.52-17.26,45.86-56.66,49.33-62.63L258.86,95c-14.72,23-33.29,43.32-40.66,51.08a1,1,0,0,1-.73.31H180a1.06,1.06,0,0,1-.73-.31c-7.37-7.77-26-28.13-40.66-51.08l-11.8,8.87c3.41,5.87,26.05,44.09,48.22,61.75a1,1,0,0,1,.37.78Z" fill="#093f68"></path><rect x="193.71" y="145.41" width="10.27" height="58.31" fill="#fff"></rect><path d="M204,204.71H193.71a1,1,0,0,1-1-1v-58.3a1,1,0,0,1,1-1H204a1,1,0,0,1,1,1v58.3A1,1,0,0,1,204,204.71Zm-9.28-2H203v-56.3h-8.28Z" fill="#093f68"></path><path d="M162.12,97a51.32,51.32,0,0,1-.61-6c-.39-9.56-1.29-22.63,8.61-27.88,3.15-1.66,7.59-1.93,9.8.86,1.7-2.69,3.59-5.47,6.46-6.84,3.27-1.57,7.13-1,10.65-.14a77.17,77.17,0,0,1,18.56,7.15,68.88,68.88,0,0,0,7.5,3.85,28.42,28.42,0,0,0,9.18,1.75c1.41,0,7.69-1.69,7.21-4a22,22,0,0,1,.35,8.74,10.53,10.53,0,0,1-4.7,7.15,16.35,16.35,0,0,0,9.67-7.92,11.24,11.24,0,0,1-.53,7.9A32.11,32.11,0,0,1,240,88.46l5.77-3.37c-1.28,4.66-4.5,8.41-8,11.65-1.58,1.48-3.15,2.4-3.69,4.51-.61,2.41-.52,5-1.29,7.35a40.33,40.33,0,0,1-4,8.66c-6.38,10.46-17.65,17.54-30,17.54a35.12,35.12,0,0,1-27.11-13.37,40.17,40.17,0,0,1-7.45-14.73A96.24,96.24,0,0,1,162.12,97Z" fill="#725858"></path><path d="M198.85,135.8A36.36,36.36,0,0,1,171,122.06a41.45,41.45,0,0,1-7.63-15.1,95.21,95.21,0,0,1-2.2-9.83h0a51.54,51.54,0,0,1-.62-6.09l0-1c-.4-9.48-.94-22.45,9.19-27.82,3.15-1.67,7.39-2,10.09.15,1.63-2.48,3.51-4.86,6.2-6.15,3.6-1.73,7.74-1.08,11.31-.21a77.82,77.82,0,0,1,18.81,7.24l1.74,1a45.91,45.91,0,0,0,5.65,2.84,27.32,27.32,0,0,0,8.83,1.68c1,0,4.92-1.06,6-2.38a.6.6,0,0,0,.19-.44h0a1,1,0,0,1,2-.4h0a22.59,22.59,0,0,1,.35,9.14,13.34,13.34,0,0,1-1.27,3.63,15.23,15.23,0,0,0,4.38-5.07,1,1,0,0,1,1-.53,1,1,0,0,1,.87.67,12.26,12.26,0,0,1-.56,8.61,21.51,21.51,0,0,1-1.73,3.3l1.81-1a1,1,0,0,1,1.46,1.13c-1.43,5.22-5.15,9.22-8.23,12.11-.34.32-.68.62-1,.91a6.15,6.15,0,0,0-2.38,3.11,24.56,24.56,0,0,0-.52,3.2,21.28,21.28,0,0,1-.79,4.22,41.41,41.41,0,0,1-4,8.87C223,128.9,211.12,135.8,198.85,135.8ZM175,62.87A9.78,9.78,0,0,0,170.59,64c-9,4.77-8.52,16.52-8.12,26l0,1a47.75,47.75,0,0,0,.6,5.86h0a91.55,91.55,0,0,0,2.15,9.62,39.08,39.08,0,0,0,7.26,14.36,34.32,34.32,0,0,0,26.33,13c11.58,0,22.77-6.54,29.18-17.06a39.82,39.82,0,0,0,3.86-8.44,20.64,20.64,0,0,0,.7-3.85,28.19,28.19,0,0,1,.57-3.45,8,8,0,0,1,3-4.13c.32-.28.64-.55,1-.86a29.07,29.07,0,0,0,6.75-8.65l-3.38,2a1,1,0,0,1-1.3-1.46,31.35,31.35,0,0,0,4.14-6.65,11.71,11.71,0,0,0,.95-4.84,17.19,17.19,0,0,1-8.88,6.19,1,1,0,0,1-1.2-.56,1,1,0,0,1,.41-1.26,9.51,9.51,0,0,0,4.23-6.47,17.65,17.65,0,0,0,.08-5.8,15,15,0,0,1-6.68,2.27,29.65,29.65,0,0,1-9.52-1.82,48.46,48.46,0,0,1-5.9-3l-1.71-1A75.84,75.84,0,0,0,196.79,58c-3.23-.78-6.94-1.38-10,.07-2.59,1.24-4.34,3.77-6.05,6.48A1,1,0,0,1,180,65a1,1,0,0,1-.84-.38A5.07,5.07,0,0,0,175,62.87Z" fill="#093f68"></path><path d="M193.71,141.35H204a0,0,0,0,1,0,0v5.91a4.36,4.36,0,0,1-4.36,4.36h-1.55a4.36,4.36,0,0,1-4.36-4.36v-5.91A0,0,0,0,1,193.71,141.35Z" fill="#ffc9b0"></path><path d="M199.62,152.63h-1.55a5.38,5.38,0,0,1-5.36-5.37v-5.91a1,1,0,0,1,1-1H204a1,1,0,0,1,1,1v5.91A5.38,5.38,0,0,1,199.62,152.63Zm-4.91-10.28v4.91a3.37,3.37,0,0,0,3.36,3.37h1.55a3.37,3.37,0,0,0,3.37-3.37v-4.91Z" fill="#093f68"></path><ellipse cx="169.48" cy="114.66" rx="9.98" ry="8.6" fill="#ffc9b0"></ellipse><path d="M169.48,124.26c-6,0-11-4.3-11-9.6s4.93-9.6,11-9.6,11,4.31,11,9.6S175.54,124.26,169.48,124.26Zm0-17.2c-4.95,0-9,3.41-9,7.6s4,7.6,9,7.6,9-3.41,9-7.6S174.44,107.06,169.48,107.06Z" fill="#093f68"></path><ellipse cx="227.68" cy="114.66" rx="9.98" ry="8.6" fill="#ffc9b0"></ellipse><path d="M227.68,124.26c-6.06,0-11-4.3-11-9.6s4.92-9.6,11-9.6,11,4.31,11,9.6S233.74,124.26,227.68,124.26Zm0-17.2c-5,0-9,3.41-9,7.6s4,7.6,9,7.6,9-3.41,9-7.6S232.63,107.06,227.68,107.06Z" fill="#093f68"></path><path d="M220.34,83.9c-.7-.4-1.44-.75-2.18-1.08a75.31,75.31,0,0,0-13.81-4.58,9.08,9.08,0,0,1-6.95,14,3.58,3.58,0,0,0,3-3,4,4,0,0,0-1.7-3.13c-3.57-2.78-9-1.38-13-3.54-2.31-1.25-3.84-3.53-5.28-5.73-.37,6.72-2.18,13.76-6.51,19.06-1.45,1.78-4.36,2.94-5.11,5.12-1.16,3.39-.11,8.11-.11,11.64a30.11,30.11,0,0,0,51.11,21.58c6.33-6.17,8.52-13.73,9.15-22.3a54,54,0,0,0-.22-11.08C228,95.12,225.68,87,220.34,83.9Z" fill="#ffc9b0"></path><path d="M198.85,143.7a31.15,31.15,0,0,1-31.11-31.11c0-1.06-.1-2.24-.2-3.49-.25-2.92-.5-5.94.36-8.48A8.47,8.47,0,0,1,171.18,97a11.93,11.93,0,0,0,2-1.76c4.66-5.7,6-13.19,6.28-18.48a1,1,0,0,1,.74-.91,1,1,0,0,1,1.1.42c1.3,2,2.78,4.24,4.92,5.4A15.5,15.5,0,0,0,191.92,83c2.58.29,5.25.59,7.4,2.27a4.82,4.82,0,0,1,2.08,4,4.35,4.35,0,0,1-.06.52,8,8,0,0,0,2.6-3,8.2,8.2,0,0,0-.43-8,1,1,0,0,1,1.07-1.52,76.7,76.7,0,0,1,14,4.65A25,25,0,0,1,220.84,83h0c6.4,3.69,8.38,13.56,8.93,17.63A53.94,53.94,0,0,1,230,112c-.74,10.22-3.65,17.29-9.45,22.93A31.36,31.36,0,0,1,198.85,143.7ZM181.23,79.64c-.61,5.23-2.28,11.67-6.49,16.82a13.4,13.4,0,0,1-2.35,2.08,7,7,0,0,0-2.59,2.73c-.74,2.14-.5,5-.27,7.66.11,1.3.21,2.52.21,3.66a29.11,29.11,0,0,0,49.41,20.86c5.42-5.27,8.15-11.95,8.85-21.65a52,52,0,0,0-.21-10.87c-.4-3-2.15-12.83-7.94-16.16h0a21.37,21.37,0,0,0-2.1-1,74.06,74.06,0,0,0-11.57-4,10.08,10.08,0,0,1-8.7,13.49,1,1,0,0,1-.27-2,2.61,2.61,0,0,0,2.2-2.11,2.92,2.92,0,0,0-1.31-2.28c-1.72-1.33-4-1.59-6.4-1.87a17.18,17.18,0,0,1-6.43-1.58A13.06,13.06,0,0,1,181.23,79.64Z" fill="#093f68"></path><path d="M200,124.27a16.31,16.31,0,0,1-2.74-.23,1,1,0,1,1,.34-2,13.66,13.66,0,0,0,4,.06c.09-.9-1-3.76-2.34-6.42a1,1,0,0,1,.43-1.35,1,1,0,0,1,1.34.42c1,1.89,3.19,6.48,2.37,8.31a1.58,1.58,0,0,1-1.1.93A9.74,9.74,0,0,1,200,124.27Z" fill="#093f68"></path><path d="M190.71,112.89a1,1,0,0,1-1-1,3,3,0,0,0-6,0,1,1,0,0,1-2,0,5,5,0,0,1,10,0A1,1,0,0,1,190.71,112.89Z" fill="#093f68"></path><path d="M215.72,112.89a1,1,0,0,1-1-1,3,3,0,0,0-6,0,1,1,0,0,1-2,0,5,5,0,0,1,10,0A1,1,0,0,1,215.72,112.89Z" fill="#093f68"></path><path d="M191.52,102.2a1.24,1.24,0,0,1-.27,0l-13.56-2.29a1.59,1.59,0,0,1,.53-3.14L191.78,99a1.59,1.59,0,0,1-.26,3.16Z" fill="#093f68"></path><path d="M205,102.2a1.59,1.59,0,0,1-.27-3.16l13.56-2.3a1.59,1.59,0,0,1,.54,3.14l-13.57,2.29Z" fill="#093f68"></path><path d="M200.44,130.42c-2.64,0-6-.92-9.59-4.13a1,1,0,0,1,1.33-1.5c7.08,6.34,12.64,2.56,12.87,2.4a1,1,0,0,1,1.16,1.63A10.73,10.73,0,0,1,200.44,130.42Z" fill="#093f68"></path><path d="M289.37,167.07l-36.7,1.19,7.25,9.43-64.74,45.46L173,198.65a7.79,7.79,0,0,0-10-1.27l-48.77,32.18a7.79,7.79,0,1,0,8.57,13l43.2-28.51,22.37,24.65a7.78,7.78,0,0,0,10.24,1.14L269.42,190l6.7,8.72Z" fill="#f56132"></path><path d="M118.42,244.85a8.79,8.79,0,0,1-4.84-16.12l48.77-32.18A8.74,8.74,0,0,1,173.69,198l21.64,23.85,63.16-44.36-6.62-8.6a1,1,0,0,1-.11-1,1,1,0,0,1,.87-.58l36.71-1.19a1,1,0,0,1,.85.43,1,1,0,0,1,.1,1l-13.24,31.69a1,1,0,0,1-.8.6,1,1,0,0,1-.92-.38l-6.12-8-70.13,49.25a8.79,8.79,0,0,1-11.55-1.29l-21.79-24-42.49,28A8.75,8.75,0,0,1,118.42,244.85Zm48.78-47.76a6.8,6.8,0,0,0-3.75,1.13L114.68,230.4a6.79,6.79,0,0,0,3.74,12.45,6.7,6.7,0,0,0,3.73-1.13l43.2-28.5a1,1,0,0,1,1.29.16L189,238a6.78,6.78,0,0,0,8.92,1l70.91-49.8a1,1,0,0,1,1.37.21l5.66,7.36,12-28.67-33.2,1.08,6.06,7.88a1,1,0,0,1-.22,1.43L195.76,224a1,1,0,0,1-1.32-.15l-22.23-24.5A6.74,6.74,0,0,0,167.2,197.09Z" fill="#093f68"></path><path d="M117,208.65a1,1,0,0,1-.84-.45,1,1,0,0,1,.29-1.39c12.85-8.38,31.73-20.83,38-25L143.39,180a1,1,0,0,1,.31-2l13.66,2.2a1,1,0,0,1,.82.77,1,1,0,0,1-.43,1c-.24.16-24.64,16.27-40.19,26.42A1,1,0,0,1,117,208.65Z" fill="#dfeaef"></path><path d="M153.91,194.33l-.26,0a1,1,0,0,1-.7-1.23l3.29-12.1a1,1,0,0,1,1.93.52l-3.29,12.11A1,1,0,0,1,153.91,194.33Z" fill="#dfeaef"></path><path d="M245.48,161.9a1,1,0,0,1-.39-1.92c1.33-.7,23.37-15.17,39.18-25.61l-8.13-1.31a1,1,0,1,1,.32-2l10.67,1.71a1,1,0,0,1,.39,1.82c-15.22,10-40.87,26.95-41.73,27.23A1.12,1.12,0,0,1,245.48,161.9Z" fill="#dfeaef"></path><path d="M284.4,144.24a1.09,1.09,0,0,1-.26,0,1,1,0,0,1-.71-1.23l2.57-9.45a1,1,0,1,1,1.93.52l-2.57,9.45A1,1,0,0,1,284.4,144.24Z" fill="#dfeaef"></path></g></svg>